<mxfile host="app.diagrams.net" modified="2023-07-03T09:45:35.302Z" agent="Mozilla/5.0 (Windows NT 10.0; Win64; x64) AppleWebKit/537.36 (KHTML, like Gecko) Chrome/114.0.0.0 Safari/537.36" etag="48GYOv3g1H6fHF5AcovT" version="21.5.2" type="device">
  <diagram name="Page-1" id="cKklXje1saIHnuhOXP5x">
    <mxGraphModel dx="2006" dy="611" grid="1" gridSize="10" guides="1" tooltips="1" connect="1" arrows="1" fold="1" page="1" pageScale="1" pageWidth="827" pageHeight="1169" math="0" shadow="0">
      <root>
        <mxCell id="0" />
        <mxCell id="1" parent="0" />
        <mxCell id="KSk2EL9Q8FNQo5pHH-Iy-46" value="" style="whiteSpace=wrap;html=1;aspect=fixed;" parent="1" vertex="1">
          <mxGeometry x="-10" width="730" height="730" as="geometry" />
        </mxCell>
        <mxCell id="KSk2EL9Q8FNQo5pHH-Iy-12" value="" style="rounded=1;whiteSpace=wrap;html=1;fillColor=#f5f5f5;fontColor=#333333;strokeColor=#666666;" parent="1" vertex="1">
          <mxGeometry x="370" y="410" width="130" height="110" as="geometry" />
        </mxCell>
        <mxCell id="KSk2EL9Q8FNQo5pHH-Iy-10" value="SingleGame.py" style="rounded=1;whiteSpace=wrap;html=1;fillColor=#f8cecc;strokeColor=#b85450;strokeWidth=2;perimeterSpacing=0;shadow=0;glass=0;" parent="1" vertex="1">
          <mxGeometry x="380" y="430" width="110" height="30" as="geometry" />
        </mxCell>
      </root>
    </mxGraphModel>
  </diagram>
</mxfile>
